PathFileType	4	(X/Y/Z)	 s01c0403.trc
DataRate	CameraRate	NumFrames	NumMarkers	Units	OrigDataRate	OrigDataStartFrame	OrigNumFrames
200	200	4	47	mm	200	1001	2000
Frame#	Time	racr			lacr			c7			jug			rlel			rdr			llel			ldr			lic			ric			lasi			rasi			rpsi			lpsi			rgt			lgt			rth1			rth2			rth3			rth4			rlfc			rsh1			rsh2			rsh3			rsh4			rlmal			rmmal			rcal			rtoe			rmt5			lth1			lth2			lth4			lth3			llfc			lsh1			lsh2			lsh3			lsh4			llmal			lmmal			lcal			ltoe			lmt5			SBIKE			LBIKE			RBIKE			
		X1	Y1	Z1	X2	Y2	Z2	X3	Y3	Z3	X4	Y4	Z4	X5	Y5	Z5	X6	Y6	Z6	X7	Y7	Z7	X8	Y8	Z8	X9	Y9	Z9	X10	Y10	Z10	X11	Y11	Z11	X12	Y12	Z12	X13	Y13	Z13	X14	Y14	Z14	X15	Y15	Z15	X16	Y16	Z16	X17	Y17	Z17	X18	Y18	Z18	X19	Y19	Z19	X20	Y20	Z20	X21	Y21	Z21	X22	Y22	Z22	X23	Y23	Z23	X24	Y24	Z24	X25	Y25	Z25	X26	Y26	Z26	X27	Y27	Z27	X28	Y28	Z28	X29	Y29	Z29	X30	Y30	Z30	X31	Y31	Z31	X32	Y32	Z32	X33	Y33	Z33	X34	Y34	Z34	X35	Y35	Z35	X36	Y36	Z36	X37	Y37	Z37	X38	Y38	Z38	X39	Y39	Z39	X40	Y40	Z40	X41	Y41	Z41	X42	Y42	Z42	X43	Y43	Z43	X44	Y44	Z44	X45	Y45	Z45	X46	Y46	Z46	X47	Y47	Z47	
1001	5.0050	694.047375	1332.568334	-113.411233	697.240237	1305.660690	-484.545163	673.282008	1428.240000	-299.144389	671.994590	1262.057115	-294.075134	568.959647	1091.673737	27.195882	706.073498	897.658195	-38.888619	544.808296	1058.553103	-578.515543	690.448050	900.322812	-457.181982	289.120062	1223.388902	-436.193399	324.263777	1195.438163	-105.462260	303.623388	1170.633243	-409.096432	339.865234	1147.841594	-133.005814	183.913840	1240.826466	-189.914407	170.062200	1248.475112	-292.686290	246.817418	1075.019799	-77.051867	256.854980	1099.659910	-455.478943	281.818017	959.268931	-60.518915	310.182678	880.671945	-61.566261	334.831199	794.267801	-68.786797	363.453208	896.968334	-70.629373	332.122318	675.857558	-86.969049	269.370026	578.923993	-54.606216	239.482646	499.608097	-57.602381	200.821213	419.834539	-67.821343	287.508326	480.042853	-88.705544	148.967157	314.108750	-89.548132	195.031031	311.463673	-161.664122	109.099123	329.010601	-143.640315	272.303388	112.353168	-138.139554	180.922204	167.417910	-66.289001	348.120270	1019.020165	-463.177671	433.558996	996.427904	-468.153545	449.772709	1049.278529	-458.904528	514.441763	967.821954	-458.800204	600.302997	893.175317	-441.245194	507.099061	844.117105	-462.166161	445.500625	783.432932	-454.615928	383.509666	725.435037	-437.670103	487.314404	744.998957	-430.816791	284.038620	627.949969	-414.031470	313.618730	623.436694	-334.320581	220.403321	624.053666	-369.023655	435.919065	448.092801	-373.054699	338.546820	490.722029	-440.919158	-225.544881	892.832204	-254.592737	-13.415206	84.835659	-457.911915	-23.172214	81.043521	-57.903335	
1002	5.0100	694.072441	1331.480545	-115.428514	696.886411	1303.469354	-486.342419	673.612113	1427.053359	-301.513666	671.196479	1260.650335	-295.659655	569.046993	1091.463642	25.783053	706.044819	897.573373	-38.811582	543.755140	1056.777175	-579.478767	690.121358	900.204145	-457.447158	288.280373	1225.743410	-437.184599	323.660104	1198.155634	-106.311977	303.258114	1172.648754	-410.455784	339.605422	1150.291046	-133.884608	183.602626	1242.887292	-191.208175	170.073501	1250.698783	-294.184034	246.968579	1077.412966	-77.862380	256.629166	1102.119944	-456.040284	284.008184	961.122543	-62.110678	313.463088	882.940313	-63.498502	339.319975	796.892277	-71.086576	367.086159	899.976076	-71.654208	336.710584	678.895132	-88.225367	272.370525	582.962182	-55.729148	241.116266	504.186871	-58.529747	201.150453	425.054278	-68.553434	288.753242	483.722187	-89.659770	147.448931	320.179259	-89.426701	193.986694	316.664603	-161.992682	108.147539	336.790215	-144.455254	261.877302	113.115235	-138.394742	173.224806	172.604229	-66.840883	346.623965	1018.673769	-462.426852	431.799419	995.060539	-467.008186	448.521405	1048.010515	-459.000927	512.231550	965.962267	-458.291271	599.114348	891.921639	-439.717861	506.657212	840.557375	-460.425934	445.692629	778.732248	-454.173716	384.203907	720.121248	-438.031876	487.783442	740.848038	-430.024923	284.802752	619.550008	-413.548374	315.283410	617.343477	-334.496114	221.844424	613.983765	-369.842780	445.278168	448.063329	-373.372002	345.929261	485.516780	-441.563323	-225.538210	892.886269	-254.842993	-13.381669	84.914691	-457.914447	-23.142777	81.121861	-57.929723	
1003	5.0150	694.176823	1330.209418	-117.328352	696.581074	1301.091502	-487.995051	673.946216	1425.938448	-303.751881	670.273435	1259.093868	-297.139488	569.019324	1091.270711	24.506896	705.973872	897.516727	-38.618428	542.460857	1054.812966	-580.325196	689.795388	900.021861	-457.718245	287.737946	1228.049947	-438.288746	322.863920	1200.898458	-107.115900	303.129600	1174.354338	-411.518316	339.246446	1152.486882	-134.621977	183.410911	1244.946529	-192.720849	170.180814	1252.675592	-295.693286	247.016474	1079.816714	-78.734117	256.357471	1104.455039	-456.568191	286.326549	962.776316	-63.699296	317.043019	885.146223	-65.500356	344.275627	799.585535	-73.050907	370.251363	902.929110	-73.366201	342.045438	681.940698	-89.714042	276.067487	586.895841	-56.950672	243.441912	508.757306	-59.616976	201.942615	430.276999	-69.535793	290.451211	487.421081	-91.063786	145.872853	326.591612	-89.558216	192.622899	321.948498	-162.705839	106.943878	344.546626	-145.352043	251.632675	114.862724	-138.521847	165.783286	178.357037	-67.538496	344.861362	1017.910454	-461.875695	429.880123	993.123896	-465.886498	447.252847	1045.871584	-458.917983	509.633043	962.959071	-457.393300	598.068879	889.010372	-437.737495	505.323364	835.625012	-458.764288	445.186125	772.674084	-453.324883	384.513007	713.009445	-437.419795	487.600475	735.373891	-428.849293	287.780902	611.897680	-415.023112	316.942455	610.055209	-334.616456	223.825195	601.836124	-371.229923	453.742620	447.227818	-373.499764	353.051285	479.598216	-442.419372	-225.503669	892.898962	-255.136386	-13.360210	84.884483	-457.968113	-23.118760	81.184302	-57.960775	
1004	5.0200	694.320828	1328.959635	-119.005915	696.513074	1298.880965	-489.803291	674.336529	1424.751915	-305.821158	669.241973	1257.365468	-298.411697	568.786949	1091.004671	23.290225	705.874286	897.478219	-38.372240	541.249495	1052.909380	-581.285925	689.432020	899.840566	-458.049318	287.448391	1230.401783	-439.469782	321.675114	1203.554862	-108.227637	303.128497	1175.814349	-412.592973	338.905235	1154.587588	-135.338314	183.316030	1246.897627	-194.329335	170.312937	1254.655801	-297.237330	246.971946	1082.005823	-79.587892	256.093166	1106.617758	-457.131684	288.724772	964.276273	-65.355058	320.796880	887.203687	-67.546690	349.356748	802.271679	-74.622272	373.469733	905.768807	-75.303522	348.082618	684.942530	-91.432016	280.297379	590.759056	-58.274602	246.113160	513.294034	-60.908161	203.023026	435.680122	-70.714901	292.413901	491.221550	-93.065683	144.076268	333.495054	-89.983351	190.874975	327.379337	-163.700156	105.556927	352.523803	-146.485005	241.633767	117.450084	-138.570179	158.477769	184.601108	-68.111880	343.130260	1016.819328	-461.245682	427.817635	990.693563	-464.854522	445.937288	1042.936569	-459.030619	506.737780	958.910400	-456.403809	594.113536	883.901687	-437.640511	503.247213	829.580928	-457.258634	444.264877	765.664431	-452.407213	384.574015	704.857888	-436.909063	487.181962	728.959761	-427.723976	254.300631	551.195054	-369.039176	318.658756	601.681623	-334.493521	226.057586	590.146221	-372.154115	462.396076	445.524255	-374.345605	360.020122	472.852856	-443.065880	-225.455220	892.919902	-255.417082	-13.351204	84.861566	-458.027951	-23.089857	81.230094	-58.000912	
